<svg xmlns="http://www.w3.org/2000/svg" width="1024" height="1024"><path d="M0 512.001v512.001l512.25-.251 512.25-.251.251-511.75.251-511.75H0v512.001m.496.499c0 281.6.114 396.651.254 255.668.14-140.982.14-371.382 0-512C.61 115.551.496 230.9.496 512.5M524 159.465c0 1.39-.821 2.904-1.884 3.473-1.036.554-2.176 2.57-2.534 4.479-.399 2.123-1.374 3.7-2.512 4.061-1.135.36-2.113 1.936-2.508 4.044-.359 1.914-1.52 3.921-2.605 4.501-1.076.576-1.957 1.767-1.957 2.648 0 .88-1.134 2.65-2.519 3.934-1.385 1.284-2.784 3.658-3.107 5.276-.345 1.723-1.373 3.147-2.481 3.437-1.199.313-1.893 1.381-1.893 2.914 0 1.331-1.125 3.476-2.5 4.768-1.375 1.292-2.5 3.406-2.5 4.699 0 1.587-.812 2.659-2.5 3.301-1.904.724-2.5 1.67-2.5 3.967 0 1.933-.718 3.465-2 4.265-1.1.687-2 2.03-2 2.985 0 .956-1.079 2.444-2.398 3.308-1.406.921-2.661 2.976-3.034 4.967-.386 2.057-1.371 3.628-2.498 3.986-1.117.354-2.11 1.921-2.485 3.919-.343 1.831-1.515 4.135-2.605 5.121-2.701 2.444-2.487 6.108.52 8.894 1.375 1.275 2.5 3.226 2.5 4.336 0 1.139.824 2.234 1.891 2.513 1.303.341 2.109 1.778 2.588 4.617.53 3.132 1.151 4.122 2.59 4.122 1.233 0 2.13.958 2.574 2.75.374 1.512 1.508 3.338 2.519 4.057 1.011.718 1.838 2.396 1.838 3.727 0 1.478.973 3.058 2.5 4.058 1.375.901 2.5 2.534 2.5 3.629 0 1.095 1.125 2.876 2.5 3.958 1.486 1.168 2.5 2.989 2.5 4.487 0 1.6.667 2.696 1.825 2.998 1.003.263 2.359 1.956 3.013 3.763.653 1.808 2.082 4.096 3.175 5.085 1.093.989 1.987 2.67 1.987 3.737 0 1.073.86 2.163 1.929 2.443 1.306.341 2.134 1.721 2.566 4.275.45 2.67 1.348 4.096 3.071 4.881 1.41.643 2.434 1.959 2.434 3.131 0 1.118.661 2.021 1.481 2.021 1.376 0 1.994 1.469 2.736 6.5.162 1.1 1.305 2.444 2.539 2.987 1.234.543 2.244 1.702 2.244 2.576 0 .874 1.125 2.645 2.5 3.937 1.375 1.292 2.5 3.437 2.5 4.768 0 1.555.694 2.601 1.943 2.927 1.103.289 2.206 1.707 2.552 3.281.335 1.525 1.71 3.808 3.057 5.073 1.346 1.265 2.448 3.163 2.448 4.219 0 1.056.868 2.146 1.929 2.424 1.316.344 2.135 1.729 2.581 4.364.432 2.561 1.297 4.065 2.569 4.469 1.054.335 2.194 1.715 2.534 3.068.339 1.353 1.446 2.903 2.459 3.446 1.013.542 2.147 2.613 2.52 4.602.436 2.323 1.346 3.792 2.544 4.105 1.128.295 1.864 1.383 1.864 2.756 0 1.316 1.05 2.956 2.5 3.906 1.375.901 2.5 2.491 2.5 3.533 0 2.959 1.082 5.059 2.607 5.059.766 0 1.393.652 1.393 1.448 0 .797 1.156 2.696 2.569 4.221s2.817 4.01 3.119 5.522c.303 1.512 1.397 3.018 2.431 3.347 1.035.328 1.881 1.451 1.881 2.495 0 1.043 1.35 3.435 3 5.314s3 4.093 3 4.918c0 .826.851 1.724 1.891 1.996 1.315.344 2.111 1.79 2.609 4.739.498 2.949 1.294 4.395 2.609 4.739 1.04.272 1.891 1.29 1.891 2.263 0 .972 1.125 2.505 2.5 3.406 1.415.927 2.507 2.605 2.515 3.865.019 2.735.947 4.174 3.235 5.019 1.005.37 1.75 1.673 1.75 3.06 0 1.515.695 2.596 1.864 2.902 1.213.317 2.11 1.796 2.567 4.228.458 2.443 1.352 3.91 2.578 4.231 1.036.27 2.15 1.733 2.486 3.263.335 1.525 1.71 3.808 3.057 5.073 1.346 1.265 2.448 3.013 2.448 3.885 0 .872.878 2.133 1.95 2.803 1.073.67 2.245 2.788 2.605 4.706.407 2.168 1.372 3.717 2.55 4.09 1.183.376 1.895 1.525 1.895 3.059 0 1.667.764 2.748 2.376 3.361 2.335.888 4.023 5.828 2.697 7.894-.327.511-45.663 1.093-105.857 1.358-71.531.315-105.621.8-106.334 1.513-.732.732-.459 1.613.902 2.915 1.073 1.027 2.256 3.555 2.629 5.617.411 2.277 1.242 3.75 2.113 3.75.79 0 1.721 1.137 2.07 2.526.349 1.39 1.403 2.938 2.343 3.441.94.503 2.256 2.742 2.925 4.974.7 2.336 1.836 4.059 2.676 4.059.803 0 1.46.609 1.46 1.354 0 .745 1.145 2.59 2.545 4.1 1.4 1.51 2.798 4.011 3.107 5.558.31 1.546 1.367 3.021 2.349 3.278 1.009.264 2.085 1.826 2.472 3.589.377 1.716 1.123 3.121 1.657 3.121.535 0 1.651 1.624 2.48 3.609.829 1.985 2.381 3.838 3.449 4.117 1.068.279 1.941.958 1.941 1.508 0 1.332 7.476 8.766 8.815 8.766.578 0 1.321.852 1.651 1.892.33 1.041 1.953 2.453 3.605 3.138 1.653.684 3.454 2.083 4.002 3.107.574 1.072 2.084 1.863 3.556 1.863 1.666 0 2.73.658 3.051 1.886.341 1.304 1.759 2.088 4.592 2.541 2.254.361 4.67 1.473 5.37 2.472.857 1.224 3.158 2.034 7.065 2.488 4.306.499 6.228 1.242 7.486 2.892l1.692 2.221 164.558.287 164.557.286v-2.086c0-2.813-2.567-7.607-4.463-8.334-.845-.325-1.537-1.504-1.537-2.622 0-1.333-.657-2.031-1.912-2.031-1.441 0-2.073-.954-2.565-3.866-.451-2.669-1.407-4.269-3.088-5.169-1.339-.717-2.435-2.111-2.435-3.099s-.9-2.277-2-2.866-2.014-2.067-2.032-3.285c-.036-2.55-2.157-5.715-3.828-5.715-.627 0-1.14-1.116-1.14-2.481 0-1.78-.673-2.65-2.385-3.079-1.829-.46-2.526-1.485-2.993-4.401-.426-2.663-1.209-3.959-2.615-4.327-1.359-.355-2.007-1.363-2.007-3.118 0-1.87-.524-2.594-1.875-2.594-1.287 0-2.065-.949-2.481-3.03-.333-1.667-1.74-4.081-3.125-5.365-1.385-1.284-2.519-3.07-2.519-3.97 0-.899-.686-1.635-1.525-1.635-.838 0-1.993-1.237-2.566-2.75-.573-1.513-1.873-3.65-2.888-4.75s-1.998-3.125-2.183-4.5c-.23-1.7-1.058-2.602-2.588-2.82-1.629-.231-2.25-.99-2.25-2.75V512H666v-2.5c0-1.833.533-2.5 2-2.5 1.545 0 2-.667 2-2.927 0-1.932.85-3.597 2.5-4.894 1.375-1.082 2.5-2.929 2.5-4.104 0-1.176.788-2.428 1.75-2.783 2.406-.888 3.217-2.301 3.235-5.636.01-1.935.616-3 1.898-3.336 1.377-.36 2.049-1.747 2.502-5.167.398-2.998 1.293-5.095 2.494-5.845 1.376-.86 2.06-2.915 2.577-7.739.387-3.613 1.059-6.569 1.494-6.569 2.043 0 3.231-9.418 2.898-22.969-.285-11.609-.641-14.408-1.955-15.369-1.044-.762-1.861-3.537-2.33-7.918-.397-3.709-1.103-6.744-1.569-6.744-1.08 0-3.994-5.788-3.994-7.931 0-.894-.9-2.395-2-3.337-1.147-.982-2-2.95-2-4.614 0-2.261-.552-3.04-2.5-3.529-1.789-.449-2.5-1.303-2.5-3.003 0-1.307-1.117-3.436-2.483-4.731-1.365-1.295-2.49-3.367-2.5-4.605-.012-1.578-.615-2.25-2.017-2.25-1.338 0-2-.667-2-2.014 0-2.496-1.933-6.034-4.25-7.781-.962-.725-1.75-1.942-1.75-2.705 0-.763-.897-2.015-1.993-2.782-1.096-.768-2.28-2.835-2.632-4.593-.352-1.758-1.449-3.63-2.439-4.159-.99-.53-2.091-1.879-2.446-2.997-.355-1.118-1.735-3.21-3.068-4.647-1.332-1.438-2.422-3.673-2.422-4.968 0-1.687-.566-2.354-2-2.354-1.443 0-2-.667-2-2.395 0-1.317-1.117-3.455-2.483-4.75-1.365-1.295-2.49-3.359-2.5-4.586-.011-1.509-.788-2.425-2.402-2.829-1.846-.464-2.527-1.485-3.012-4.52-.409-2.557-1.153-3.92-2.14-3.92-.881 0-1.764-1.253-2.113-3-.394-1.971-1.204-3-2.361-3-1.313 0-1.928-1.111-2.415-4.358-.497-3.311-1.245-4.627-3.114-5.478-1.353-.617-2.46-1.783-2.46-2.591 0-.808-1.125-2.684-2.5-4.168-1.375-1.483-2.5-3.704-2.5-4.934 0-1.397-.752-2.434-2-2.761-1.235-.323-2-1.364-2-2.722 0-1.21-1.096-3.062-2.436-4.116-1.339-1.054-2.577-3.144-2.75-4.644-.218-1.895-.965-2.821-2.445-3.032-1.599-.228-2.279-1.225-2.725-4-.346-2.158-1.436-4.22-2.619-4.954-1.114-.693-2.025-2.197-2.025-3.344a2.662 2.662 0 00-2-2.608c-1.1-.288-2-1.344-2-2.348 0-1.003-.45-2.102-1-2.442-.55-.34-1-1.439-1-2.442 0-1.004-.9-2.06-2-2.348-1.321-.345-2-1.364-2-3 0-1.608-.679-2.654-1.934-2.982-1.289-.337-2.168-1.754-2.635-4.246-.451-2.402-1.357-3.911-2.533-4.219-1.008-.263-2.128-1.443-2.489-2.621-.361-1.178-1.501-2.947-2.533-3.931S568 215.803 568 214.436c0-1.731-.759-2.774-2.5-3.436-1.587-.603-2.5-1.729-2.5-3.081 0-1.172-1.125-3.467-2.5-5.101s-2.5-3.586-2.5-4.338c0-.752-.788-1.955-1.75-2.673-.962-.719-2.411-2.657-3.219-4.307-.808-1.65-2.271-3.805-3.25-4.789-.98-.984-1.781-2.619-1.781-3.633 0-1.015-.887-2.077-1.972-2.36-1.4-.367-2.162-1.705-2.628-4.617-.5-3.13-1.105-4.101-2.553-4.101-1.308 0-2.083-.932-2.497-3-.33-1.65-1.171-3-1.868-3-1.481 0-2.482-2.207-2.482-5.475 0-2.629-1.673-3.525-6.582-3.525-2.966 0-3.418.326-3.418 2.465m-82.5 165.071c-2.2.877-8.275 1.856-13.5 2.175-7.886.482-10.026.98-12.594 2.935-2.231 1.697-4.403 2.354-7.782 2.354-3.551 0-4.843.424-5.332 1.75-.905 2.451-2.307 3.217-5.925 3.235-2.135.01-3.28.573-3.591 1.765-.282 1.076-2.204 2.217-4.991 2.962-3.118.834-4.698 1.848-5.065 3.25-.293 1.121-1.197 2.038-2.01 2.038-.812 0-1.721.933-2.019 2.074-.298 1.141-1.461 2.315-2.584 2.608-1.122.294-2.304 1.362-2.625 2.375-.321 1.012-1.438 2.112-2.482 2.443-1.044.331-2.161 1.431-2.482 2.443-.321 1.013-1.469 2.073-2.551 2.355-1.136.297-1.967 1.367-1.967 2.532 0 1.109-1.063 3.289-2.363 4.843-1.3 1.555-2.665 3.791-3.033 4.969-.369 1.178-1.555 2.374-2.637 2.656-1.369.358-1.972 1.379-1.982 3.358-.018 3.335-.829 4.748-3.235 5.636-1.036.382-1.75 1.678-1.75 3.177 0 1.859-.528 2.531-1.988 2.531-1.557 0-2.132.896-2.649 4.133-.453 2.83-1.244 4.285-2.512 4.616-1.018.266-1.851 1.321-1.851 2.345 0 1.023-1.072 2.562-2.383 3.421-1.31.859-2.663 2.966-3.007 4.684-.343 1.718-1.521 3.751-2.617 4.519-1.096.767-1.993 1.99-1.993 2.716 0 .727-.748 1.939-1.663 2.694-.914.754-2.51 3.285-3.546 5.622-1.037 2.337-2.539 4.25-3.338 4.25-.89 0-1.453.986-1.453 2.545 0 1.4-1.125 3.671-2.5 5.046-1.375 1.375-2.5 3.327-2.5 4.338 0 1.011-.898 2.072-1.995 2.359-2.035.533-2.383 1.135-3.441 5.962-.331 1.512-1.212 2.75-1.958 2.75s-1.626 1.35-1.956 3c-.416 2.078-1.188 3-2.511 3-1.499 0-2.058.972-2.587 4.5-.452 3.019-1.165 4.5-2.165 4.5-.82 0-1.962 1.35-2.537 3s-1.419 3-1.875 3c-.959 0-3.975 5.717-3.975 7.537 0 .676-.9 1.465-2 1.753-1.235.323-2 1.364-2 2.722 0 1.21-1.125 3.085-2.5 4.167-1.43 1.125-2.5 2.997-2.5 4.375 0 1.703-.698 2.583-2.385 3.006-1.846.464-2.527 1.485-3.012 4.52-.345 2.156-1.095 3.92-1.667 3.92-.572 0-1.495 1.305-2.051 2.9s-1.822 3.112-2.812 3.371c-1.144.299-2.058 1.837-2.504 4.211-.467 2.492-1.346 3.909-2.635 4.246-1.106.289-1.934 1.369-1.934 2.524 0 1.11-1.134 3.069-2.519 4.353-1.385 1.284-2.792 3.698-3.125 5.365-.335 1.675-1.244 3.03-2.033 3.03-.785 0-1.885 1.314-2.445 2.92-.56 1.606-1.653 3.164-2.43 3.462-.777.298-1.699 2.334-2.049 4.526-.488 3.053-1.135 4.055-2.768 4.288-1.409.201-2.244 1.151-2.464 2.804-.183 1.375-1.42 3.452-2.75 4.616-1.329 1.164-2.417 3.119-2.417 4.344 0 1.344-.75 2.423-1.893 2.722-1.087.284-2.134 1.702-2.459 3.33-.312 1.559-1.43 3.657-2.484 4.661-1.054 1.005-2.227 2.84-2.607 4.077-.381 1.237-1.338 2.25-2.128 2.25-.858 0-1.922 1.813-2.64 4.498-.728 2.722-1.911 4.723-2.996 5.068-.986.313-1.793 1.274-1.793 2.137 0 .862-1.125 2.61-2.5 3.885-1.722 1.596-2.5 3.374-2.5 5.718v3.401l7.75.687c13.835 1.228 57.081 2.529 85.383 2.568 26.809.037 27.649-.022 28.157-1.962.287-1.1 1.19-2 2.006-2 .891 0 2.006-1.77 2.793-4.435.796-2.698 2.015-4.62 3.11-4.907 1.008-.263 1.801-1.389 1.801-2.556 0-1.147.911-2.651 2.025-3.344 1.183-.734 2.273-2.796 2.619-4.954.446-2.775 1.126-3.772 2.725-4 1.414-.202 2.239-1.146 2.452-2.804.176-1.375.917-2.966 1.646-3.535.73-.569 2.025-2.706 2.879-4.75.853-2.043 2.25-3.715 3.103-3.715.962 0 1.551-.894 1.551-2.354 0-1.295 1.125-3.568 2.5-5.051 1.375-1.484 2.5-3.186 2.5-3.782 0-.596 1.134-2.134 2.519-3.418 1.385-1.284 2.804-3.758 3.152-5.498.377-1.886 1.379-3.359 2.481-3.647 1.016-.266 1.848-1.305 1.848-2.31 0-1.005.897-2.455 1.993-3.222 1.096-.768 2.285-2.857 2.642-4.643.41-2.05 1.519-3.644 3.007-4.322 1.37-.624 2.365-1.95 2.375-3.164.01-1.149 1.135-3.149 2.5-4.444 1.366-1.295 2.483-3.433 2.483-4.75 0-1.728.557-2.395 2-2.395 1.434 0 2-.667 2-2.354 0-1.295 1.121-3.564 2.492-5.042 1.37-1.479 2.758-3.752 3.084-5.052.326-1.3 1.387-2.571 2.357-2.824 1.032-.27 2.037-1.828 2.423-3.756.362-1.811 1.555-3.922 2.651-4.69 1.096-.767 1.993-2.019 1.993-2.782 0-.763.891-2.011 1.98-2.774 1.09-.763 2.345-3.151 2.791-5.306.614-2.969 1.347-3.998 3.02-4.24 1.499-.216 2.215-1.02 2.226-2.5.01-1.199 1.135-3.24 2.5-4.535 1.366-1.295 2.483-3.402 2.483-4.683 0-1.449.755-2.567 2-2.962 1.1-.349 2-1.349 2-2.223 0-.874 1.06-2.981 2.356-4.683 1.296-1.702 2.661-4.058 3.033-5.236.373-1.178 1.501-2.358 2.509-2.621 1.165-.305 2.08-1.806 2.516-4.13.377-2.009 1.563-4.2 2.636-4.87 1.072-.67 1.95-1.846 1.95-2.613 0-.767 1.134-2.445 2.519-3.729 1.385-1.284 2.784-3.658 3.107-5.276.345-1.723 1.373-3.147 2.481-3.437 1.244-.325 1.893-1.385 1.893-3.088 0-1.501.564-2.594 1.339-2.594 1.522 0 3.661-4.119 3.661-7.047 0-1.286.683-1.953 2-1.953 1.454 0 2-.667 2-2.443 0-1.344.891-3.068 1.98-3.83 1.089-.763 2.67-3.039 3.513-5.057.844-2.019 2.153-3.67 2.909-3.67.769 0 1.653-1.482 2.006-3.363.347-1.849 1.482-4.132 2.522-5.073 1.039-.941 2.164-2.803 2.499-4.138.335-1.334 1.221-2.426 1.969-2.426 1.218 0 2.253-1.887 3.977-7.25.309-.962 1.251-1.75 2.094-1.75.955 0 1.531-.915 1.531-2.433 0-1.554.722-2.661 1.999-3.067 1.371-.435 2.192-1.845 2.615-4.488.475-2.967 1.165-3.991 3.001-4.452 1.722-.432 2.385-1.297 2.385-3.11 0-1.382.671-2.77 1.491-3.085.82-.315 2.016-2.325 2.658-4.468.808-2.696 1.735-3.897 3.009-3.897 1.195 0 1.842-.726 1.842-2.066 0-1.136.419-2.848.93-3.804.512-.956.624-2.211.25-2.789-.397-.614-7.483-1.344-17.021-1.756-8.988-.387-17.425-1.116-18.749-1.619-1.323-.503-8.37-1.165-15.658-1.47-10.75-.45-14.007-.254-17.252 1.04M697 694.5a14.177 14.177 0 01-7.715 2.442c-3.122.043-4.486.565-5.262 2.015-.596 1.114-2.606 2.249-4.664 2.635-2.333.438-3.791 1.345-4.108 2.554-.269 1.032-1.561 2.145-2.87 2.473-1.508.379-2.381 1.326-2.381 2.583 0 1.144-.847 2.207-2 2.508-1.1.288-2 1.199-2 2.025 0 .825-1.35 3.039-3 4.918s-3 4.301-3 5.382c0 1.258-.678 1.965-1.885 1.965-1.541 0-2.014 1.033-2.592 5.666-.39 3.116-1.522 6.829-2.517 8.25-3.573 5.106-3.355 44.831.268 48.834.897.991 1.948 3.815 2.335 6.276.388 2.461 1.759 5.866 3.048 7.568 1.289 1.702 2.343 3.599 2.343 4.215 0 .616.9 1.602 2 2.191 1.1.589 2 1.648 2 2.355 0 .706 1.125 2.263 2.5 3.458 1.375 1.196 2.5 2.627 2.5 3.18 0 .554.942 1.007 2.094 1.007 1.256 0 2.304.804 2.619 2.011.289 1.106 1.597 2.28 2.906 2.608 1.31.329 2.381 1.182 2.381 1.897 0 .721 2.223 1.869 5 2.581 2.75.704 5 1.657 5 2.117 0 2.103 6.788 2.865 25.634 2.877 21.564.013 27.366-.536 27.366-2.589 0-.749 1.903-1.56 4.614-1.967 3.361-.504 4.751-1.214 5.117-2.613.276-1.057 1.269-1.922 2.206-1.922.936 0 3.215-1.35 5.063-3 1.848-1.65 3.864-3 4.479-3 .616 0 1.673-1.532 2.35-3.405.678-1.873 2.343-4.133 3.701-5.023 1.359-.89 2.47-2.508 2.47-3.595 0-1.087.627-1.977 1.393-1.977 1.677 0 2.607-2.152 2.607-6.03 0-1.672 1.042-3.991 2.5-5.565 2.358-2.544 2.509-3.385 2.658-14.801.087-6.657.03-18.404-.126-26.104-.264-13.06-.443-14.19-2.658-16.827-1.306-1.554-2.374-4.107-2.374-5.673 0-1.577-1.115-4.171-2.5-5.818-1.375-1.634-2.5-3.693-2.5-4.576 0-.883-.686-1.606-1.525-1.606-.838 0-1.969-1.169-2.512-2.597-.543-1.428-1.882-2.83-2.975-3.116-1.093-.286-1.988-1.152-1.988-1.925 0-.773-1.116-1.914-2.481-2.535-1.364-.622-2.73-1.915-3.034-2.874-.322-1.016-2.009-2.016-4.042-2.398-1.918-.36-4.036-1.532-4.706-2.605-.931-1.49-2.341-1.95-5.978-1.95-2.617 0-4.759-.417-4.759-.927 0-.509-1.419-1.634-3.154-2.5-2.481-1.238-6.479-1.561-18.75-1.515-14.741.054-15.788.188-19.096 2.442m141.228-1.513c-1.25.531-2.536 1.651-2.857 2.489-.4 1.042-1.96 1.524-4.928 1.524-3.063 0-4.627.506-5.303 1.715-.528.943-2.463 2.211-4.3 2.819-1.837.608-3.784 2.086-4.327 3.286-.543 1.199-1.298 2.18-1.679 2.18-1.526 0-3.834 3.28-3.834 5.449 0 1.269-.954 2.94-2.12 3.714-1.983 1.318-2.115 2.239-2.06 14.372.055 11.945.222 13.073 2.12 14.337 1.133.755 2.06 2.201 2.06 3.215 0 1.013.882 2.315 1.959 2.891 1.078.577 2.699 2.606 3.602 4.509 1.222 2.575 2.459 3.614 4.835 4.059 1.946.366 3.565 1.449 4.148 2.777.712 1.621 1.977 2.254 4.956 2.478 2.2.166 4.45.88 5 1.587 1.779 2.287 5.273 3.612 9.527 3.612 2.643 0 5.083.728 6.7 2 1.468 1.154 4.071 2.005 6.158 2.011 6.789.021 11.033 1.155 11.655 3.115.385 1.213 1.541 1.879 3.277 1.888 4.526.023 7.183 1.127 7.183 2.986 0 .972.9 2.002 2 2.29 1.796.469 2 1.364 2 8.765 0 8.093-.063 8.304-3.47 11.613-1.908 1.853-4.946 3.649-6.75 3.991-1.804.341-5.052 1.457-7.218 2.481-4.695 2.218-13.785 2.494-15.799.48-.759-.759-3.268-1.699-5.577-2.089-2.308-.39-4.757-1.486-5.442-2.436-.684-.95-2.032-2.02-2.994-2.379-.962-.359-1.75-1.495-1.75-2.524s-1.125-2.384-2.5-3.01c-2.063-.94-2.5-1.841-2.5-5.161 0-2.933-.412-4.021-1.521-4.021-.837 0-2.034-1.125-2.661-2.5-.923-2.025-1.857-2.5-4.919-2.5-2.08 0-4.034.409-4.343.91-.309.5-3.711 1.472-7.559 2.16L802 789.32v4.84c0 2.662.431 4.84.958 4.84.526 0 1.895 3.15 3.042 7 1.344 4.512 2.603 7 3.542 7 .871 0 1.458.963 1.458 2.392 0 1.717.705 2.568 2.5 3.019 1.614.405 2.5 1.329 2.5 2.608 0 1.094.671 1.981 1.5 1.981.825 0 2.397.897 3.493 1.993s3.796 2.555 6 3.243c2.204.688 4.007 1.766 4.007 2.396 0 1.957 6.45 2.503 29.259 2.474 20.91-.026 22.141-.133 24.242-2.106 1.217-1.144 3.852-2.345 5.856-2.67 2.175-.353 3.643-1.156 3.643-1.992 0-.771.788-1.687 1.75-2.037 2.493-.906 8.25-6.932 8.25-8.635 0-.788.865-1.659 1.922-1.935 1.399-.366 2.109-1.756 2.613-5.117.419-2.794 1.21-4.614 2.007-4.614 3.014 0 3.089-22.284.082-24.517-.753-.56-1.691-2.922-2.085-5.25-.549-3.252-1.158-4.233-2.627-4.233-1.06 0-1.912-.69-1.912-1.55 0-2.088-6.288-8.45-8.351-8.45-.944 0-1.649-.799-1.649-1.871 0-1.478-1.001-2.004-4.761-2.503-3.044-.404-5.177-1.297-5.914-2.477-.835-1.337-2.899-2.027-7.489-2.503-3.898-.404-7.378-1.424-9.046-2.651-1.49-1.097-3.789-1.995-5.11-1.995-5.492 0-11.68-1.336-11.68-2.522 0-.723-1.979-1.548-4.693-1.955-6.278-.941-14.268-8.322-14.291-13.202-.016-3.277 4.293-8.887 8.484-11.046 3.228-1.663 16.408-2.418 24.32-1.393 6.944.9 7.548 1.189 11.75 5.638 2.919 3.09 4.435 5.592 4.445 7.335.031 5.22 1.023 5.657 12.472 5.5 13.803-.19 16.03-1.405 15.02-8.194-.382-2.563-1.287-4.999-2.013-5.412-.725-.412-1.619-2.531-1.987-4.708-.432-2.558-1.312-4.162-2.488-4.535-1.001-.318-2.098-1.687-2.439-3.042-.34-1.355-1.254-2.464-2.032-2.464-.777 0-1.699-.9-2.048-2s-1.279-2-2.067-2c-.788 0-2.367-.934-3.508-2.075s-3.718-2.342-5.727-2.668c-2.009-.326-5.237-1.529-7.175-2.675-3.118-1.842-5.364-2.109-19.523-2.321-8.8-.131-17.022.196-18.272.726m-682.671 3.236c-.856 1.222-1.557 2.974-1.557 3.893 0 .918-.648 1.918-1.439 2.222-.82.315-1.954 3.174-2.638 6.646-.76 3.866-1.836 6.434-2.943 7.027-1.083.579-2.014 2.731-2.455 5.671-.391 2.606-1.569 5.83-2.618 7.163-1.214 1.544-1.907 4.01-1.907 6.79 0 3.167-.402 4.365-1.465 4.365-1.997 0-3.535 3.166-3.535 7.279 0 2.195-.89 4.445-2.499 6.315-1.792 2.085-2.499 4.074-2.5 7.039-.001 3.292-.408 4.24-2.001 4.657-1.538.402-2 1.364-2 4.166 0 3.74-2.378 9.544-3.91 9.544-.473 0-1.169 2.475-1.547 5.5-.441 3.53-1.158 5.5-2.002 5.5-.826 0-1.772 2.425-2.546 6.528-.807 4.274-1.836 6.852-2.98 7.464-1.026.549-2.029 2.696-2.429 5.196-.375 2.343-1.438 5.096-2.364 6.119-.925 1.022-1.916 4.184-2.202 7.026-.444 4.407-.851 5.214-2.77 5.487-1.629.231-2.25.99-2.25 2.75V833h14.5c13.692 0 14.5-.108 14.5-1.943 0-1.069.974-2.626 2.164-3.46 1.652-1.157 2.274-2.835 2.627-7.088.335-4.043.999-5.949 2.417-6.942 1.188-.832 2.176-3.011 2.516-5.547.42-3.128 1.128-4.394 2.821-5.037 1.243-.473 2.556-1.337 2.917-1.921.435-.704 9.198-1.062 25.988-1.062h25.333l1.548 3.87c.852 2.128 2.251 4.139 3.109 4.469 1.073.411 1.565 1.935 1.577 4.88.013 3.245.618 4.851 2.5 6.636 1.75 1.66 2.488 3.431 2.498 6 .028 6.502.365 6.645 15.697 6.645H237.5l-.237-3.5c-.451-6.664-1.357-10-2.714-10-.875 0-1.607-1.789-2.05-5.01-.452-3.286-1.366-5.484-2.655-6.387-1.398-.979-2.132-2.99-2.542-6.966-.437-4.23-1.024-5.731-2.413-6.172-1.319-.419-2.02-1.974-2.491-5.524-.361-2.718-1.015-4.941-1.454-4.941-1.427 0-3.944-6.22-3.944-9.747 0-2.599-.489-3.568-2-3.963-1.612-.422-2-1.364-2-4.861 0-3.294-.602-4.94-2.5-6.838-1.462-1.462-2.506-3.661-2.514-5.296-.022-4.545-1.046-7.078-3.078-7.609-1.525-.399-1.908-1.413-1.908-5.057 0-3.423-.464-4.807-1.862-5.555-1.242-.665-2.262-3.027-3.061-7.09-.66-3.352-1.825-6.334-2.59-6.627-.765-.294-1.703-2.612-2.084-5.152-.412-2.754-1.493-5.267-2.676-6.225-1.355-1.097-2.143-3.259-2.484-6.807-.422-4.385-.86-5.29-2.799-5.776-1.265-.318-2.543-1.212-2.84-1.987-.426-1.109-3.205-1.41-13.016-1.41-11.757 0-12.564.128-14.031 2.223m220.666-.666L374 697.113l.006 46.194c.005 36.822.28 46.718 1.356 48.78.742 1.422 1.891 5.697 2.553 9.5 1.913 10.995 2.045 11.413 3.604 11.413.91 0 1.481.957 1.481 2.481 0 1.812.674 2.65 2.5 3.108 1.553.39 2.5 1.337 2.5 2.5 0 1.144.936 2.108 2.406 2.477 1.323.332 2.614 1.404 2.87 2.383.292 1.114 1.846 2.039 4.151 2.471 2.026.38 4.559 1.566 5.629 2.636 2.092 2.092 8.161 2.402 38.282 1.955 11.747-.174 13.139-.395 16.389-2.601 1.954-1.325 4.431-2.41 5.506-2.41 1.113 0 2.179-.861 2.477-2 .292-1.117 1.364-2 2.428-2 1.061 0 2.409-1.107 3.044-2.5.626-1.375 1.742-2.5 2.479-2.5.736 0 1.339-.813 1.339-1.806 0-.993 1.107-3.306 2.46-5.139 1.352-1.834 2.765-5.409 3.138-7.945.374-2.535 1.131-4.901 1.684-5.257.552-.356 1.363-2.831 1.801-5.5 1.224-7.449 1.118-95.109-.118-97.419-.923-1.725-2.178-1.934-11.596-1.934-9.073 0-10.969.291-13.465 2.068L456 698.136v50.192c0 49.108-.043 50.218-2 51.44-1.1.687-2 1.808-2 2.49 0 2.034-6.223 6.375-10.208 7.122-2.039.382-4.964 1.35-6.5 2.151-2.992 1.561-8.292 1.988-8.292.669 0-.44-3.375-1.64-7.5-2.667-4.732-1.179-7.5-2.369-7.5-3.225 0-.747-1.125-1.785-2.5-2.308-1.461-.556-2.5-1.743-2.5-2.859 0-1.049-.831-2.125-1.847-2.391-1.234-.322-2.061-1.774-2.489-4.366-.353-2.136-.647-24.896-.653-50.577L402 697.113l-2.223-1.556C398.142 694.411 395.03 694 388 694c-7.03 0-10.142.411-11.777 1.557M519 695.5c-.685.825-1.865 1.5-2.622 1.5-1.157 0-1.378 10.817-1.378 67.393 0 60.531.161 67.455 1.582 68 2.996 1.15 21.959.666 23.218-.593.894-.894 1.2-11.6 1.2-42V749h2.8c3.361 0 5.2 1.621 5.2 4.583 0 1.318.767 2.384 1.934 2.689 1.289.337 2.168 1.754 2.635 4.246.432 2.303 1.367 3.914 2.433 4.193.953.249 2.244 2.165 2.873 4.267.629 2.098 1.814 4.072 2.634 4.387.82.315 1.491 1.703 1.491 3.085 0 1.813.663 2.678 2.385 3.11 1.81.455 2.526 1.484 2.972 4.274.324 2.021 1.5 4.456 2.616 5.41 1.115.955 2.027 2.308 2.027 3.006s.878 1.817 1.95 2.487c1.073.67 2.259 2.861 2.636 4.87.423 2.254 1.357 3.827 2.442 4.111.967.252 2.01 1.657 2.319 3.121.309 1.463 1.707 3.968 3.107 5.567 1.4 1.598 2.546 3.683 2.546 4.633 0 .95.87 1.955 1.934 2.233 1.276.334 2.166 1.744 2.616 4.144.378 2.013 1.524 4.088 2.566 4.646 1.036.555 1.884 1.905 1.884 3.001 0 1.909.592 1.98 14.25 1.714l14.25-.277.257-67.303c.173-45.256-.084-67.94-.785-69.25-.925-1.727-2.154-1.947-10.885-1.947-6.865 0-10.169.394-10.923 1.302-.727.876-1.177 15.271-1.373 43.951-.305 44.649-.642 47.957-4.313 42.354-.939-1.434-2.331-2.607-3.093-2.607s-1.385-.606-1.385-1.346c0-1.94-2.991-7.654-4.006-7.654-.473 0-1.179-1.013-1.57-2.25s-1.528-2.825-2.528-3.529c-.999-.703-2.106-2.825-2.461-4.716-.363-1.935-1.383-3.671-2.333-3.973-.957-.303-2.195-2.429-2.857-4.907-.796-2.976-1.82-4.542-3.207-4.905-1.359-.355-2.038-1.359-2.038-3.01 0-1.605-.679-2.654-1.928-2.981-1.327-.347-2.029-1.552-2.25-3.867-.224-2.342-1.004-3.661-2.572-4.349-1.237-.543-2.25-1.851-2.25-2.906 0-1.055-1.125-3.393-2.5-5.196s-2.5-4.025-2.5-4.938c0-.913-.852-1.883-1.893-2.155-1.096-.287-2.135-1.707-2.468-3.375-.317-1.584-1.446-3.75-2.509-4.813-1.063-1.063-2.231-2.872-2.596-4.021-.364-1.149-2.282-3.894-4.262-6.099l-3.6-4.01h-10.214c-7.858 0-10.5.346-11.458 1.5m-261.757 69.223l.257 67.777 48.25.26 48.25.259v-11.402c0-9.476-.267-11.506-1.582-12.01-.87-.334-16.166-.607-33.991-.607h-32.41l-.259-55.75-.258-55.75-14.257-.277-14.257-.278.257 67.778m447.11-47.996c-3.081.281-4.278.878-4.656 2.325-.309 1.182-1.37 1.948-2.697 1.948-1.35 0-2.388.77-2.713 2.011-.289 1.106-1.597 2.28-2.906 2.608-1.508.379-2.381 1.326-2.381 2.583 0 1.136-.845 2.206-1.975 2.502-1.334.348-2.184 1.699-2.617 4.156-.353 2.002-1.521 4.341-2.596 5.198-1.83 1.459-1.954 2.915-1.945 22.921.008 20 .14 21.54 2.071 24.151 1.134 1.534 2.062 3.31 2.062 3.947 0 .638 1.237 2.644 2.75 4.458 1.513 1.815 3.512 4.401 4.444 5.746.932 1.346 3.069 2.722 4.75 3.058 1.785.357 3.056 1.238 3.056 2.117 0 1.582 1.359 2.025 9.457 3.082 2.727.356 5.473 1.352 6.104 2.214 1.028 1.406 1.606 1.345 5.608-.592 2.455-1.188 6.275-2.16 8.491-2.16 2.836 0 4.875-.727 6.889-2.457 1.572-1.352 3.78-2.589 4.905-2.75 1.223-.175 2.171-1.173 2.357-2.482.195-1.363 1.137-2.305 2.5-2.5 1.738-.247 2.253-1.083 2.499-4.058.2-2.419.976-4.103 2.189-4.753 1.272-.68 2.066-2.54 2.459-5.753 1.296-10.623 2.774-18.272 3.632-18.803 1.185-.732 1.185-5.444.001-5.444-.85 0-2.288-7.222-3.633-18.247-.4-3.276-1.181-5.07-2.519-5.786-1.239-.663-1.939-2.091-1.939-3.955 0-2.026-.802-3.468-2.622-4.715-1.441-.988-3.712-2.81-5.045-4.047-1.333-1.237-3.273-2.25-4.311-2.25-1.038 0-2.154-.84-2.48-1.868-.421-1.325-1.931-2.051-5.207-2.5-4.677-.641-16.413-.594-23.982.095m-536.974 16.547c-1.167 1.232-2.455 4.262-2.864 6.733-.408 2.471-1.548 5.258-2.532 6.192-.985.935-2.091 3.635-2.46 6-.998 6.412-1.525 7.801-2.96 7.801-1.383 0-2.534 5.045-2.552 11.191-.006 2.03-.483 3.983-1.06 4.339-.716.443-.678 1.094.123 2.059.923 1.113 4.739 1.411 18.048 1.411H188v-4.14c0-2.543-.584-4.568-1.515-5.25-.834-.61-2.038-3.922-2.677-7.36-.67-3.605-1.676-6.25-2.378-6.25-1.588 0-2.43-2.318-2.43-6.687 0-2.3-.868-4.556-2.5-6.495-1.842-2.19-2.5-4.136-2.5-7.395 0-3.925-.253-4.421-2.25-4.406-1.238.01-3.204 1.025-4.371 2.257" fill="undefined" fill-rule="evenodd"/></svg>